<svg xmlns="http://www.w3.org/2000/svg" width="760" height="588" viewBox="0 0 760 588">
<rect width="100%" height="100%" fill="#ffffff"/>
<text x="24" y="32" font-family="Arial, sans-serif" font-size="20" font-weight="700">Utility vs Re-ID Risk</text>
<text x="24" y="56" font-family="Arial, sans-serif" font-size="12" fill="#555">Higher utility is better. Lower risk is better.</text>
<text x="24" y="105" font-family="Arial, sans-serif" font-size="13">breast_cancer/independent</text>
<rect x="150" y="90" width="409" height="22" rx="3" fill="#2563eb"/>
<rect x="150" y="115" width="44" height="8" rx="2" fill="#dc2626"/>
<text x="680" y="105" font-family="Arial, sans-serif" font-size="12" fill="#333">U 0.788 / R 0.086</text>
<text x="24" y="155" font-family="Arial, sans-serif" font-size="13">breast_cancer/privbayes</text>
<rect x="150" y="140" width="310" height="22" rx="3" fill="#2563eb"/>
<rect x="150" y="165" width="18" height="8" rx="2" fill="#dc2626"/>
<text x="680" y="155" font-family="Arial, sans-serif" font-size="12" fill="#333">U 0.598 / R 0.036</text>
<text x="24" y="205" font-family="Arial, sans-serif" font-size="13">breast_cancer/datasynthesizer-independent</text>
<rect x="150" y="190" width="432" height="22" rx="3" fill="#2563eb"/>
<rect x="150" y="215" width="15" height="8" rx="2" fill="#dc2626"/>
<text x="680" y="205" font-family="Arial, sans-serif" font-size="12" fill="#333">U 0.831 / R 0.030</text>
<text x="24" y="255" font-family="Arial, sans-serif" font-size="13">iris/independent</text>
<rect x="150" y="240" width="407" height="22" rx="3" fill="#2563eb"/>
<rect x="150" y="265" width="0" height="8" rx="2" fill="#dc2626"/>
<text x="680" y="255" font-family="Arial, sans-serif" font-size="12" fill="#333">U 0.784 / R 0.000</text>
<text x="24" y="305" font-family="Arial, sans-serif" font-size="13">iris/privbayes</text>
<rect x="150" y="290" width="384" height="22" rx="3" fill="#2563eb"/>
<rect x="150" y="315" width="0" height="8" rx="2" fill="#dc2626"/>
<text x="680" y="305" font-family="Arial, sans-serif" font-size="12" fill="#333">U 0.739 / R 0.000</text>
<text x="24" y="355" font-family="Arial, sans-serif" font-size="13">iris/datasynthesizer-independent</text>
<rect x="150" y="340" width="396" height="22" rx="3" fill="#2563eb"/>
<rect x="150" y="365" width="0" height="8" rx="2" fill="#dc2626"/>
<text x="680" y="355" font-family="Arial, sans-serif" font-size="12" fill="#333">U 0.762 / R 0.000</text>
<text x="24" y="405" font-family="Arial, sans-serif" font-size="13">diabetes/independent</text>
<rect x="150" y="390" width="403" height="22" rx="3" fill="#2563eb"/>
<rect x="150" y="415" width="0" height="8" rx="2" fill="#dc2626"/>
<text x="680" y="405" font-family="Arial, sans-serif" font-size="12" fill="#333">U 0.776 / R 0.000</text>
<text x="24" y="455" font-family="Arial, sans-serif" font-size="13">diabetes/privbayes</text>
<rect x="150" y="440" width="340" height="22" rx="3" fill="#2563eb"/>
<rect x="150" y="465" width="0" height="8" rx="2" fill="#dc2626"/>
<text x="680" y="455" font-family="Arial, sans-serif" font-size="12" fill="#333">U 0.654 / R 0.000</text>
<text x="24" y="505" font-family="Arial, sans-serif" font-size="13">diabetes/datasynthesizer-independent</text>
<rect x="150" y="490" width="401" height="22" rx="3" fill="#2563eb"/>
<rect x="150" y="515" width="0" height="8" rx="2" fill="#dc2626"/>
<text x="680" y="505" font-family="Arial, sans-serif" font-size="12" fill="#333">U 0.772 / R 0.000</text>
<line x1="150" y1="552" x2="670" y2="552" stroke="#ddd"/>
<text x="150" y="572" font-family="Arial, sans-serif" font-size="11" fill="#555">0</text>
<text x="662" y="572" font-family="Arial, sans-serif" font-size="11" fill="#555">1</text>
</svg>
